<svg width="120" height="125" viewBox="0 0 120 125" fill="none" xmlns="http://www.w3.org/2000/svg">
<circle cx="59.5" cy="30.5" r="28.5" fill="#4A4A4A"/>
<circle cx="59.5" cy="28.5" r="28.5" fill="#D0D0D0"/>
<path d="M76.9561 61C100.728 61 120 80.2717 120 104.044H0C0 80.2717 19.2717 61 43.0439 61H76.9561Z" fill="#D0D0D0"/>
<path d="M0 109H120V110C120 118.284 113.284 125 105 125H15C6.71573 125 0 118.284 0 110V109Z" fill="#4A4A4A"/>
<ellipse cx="59.5" cy="29.5" rx="28.5" ry="27.5" fill="#ADADAD"/>
<path d="M120 107C120 115.284 113.284 122 105 122H15C6.71573 122 0 115.284 0 107V106C7.08174e-06 82.8043 18.8043 64 42 64H78C101.196 64 120 82.8043 120 106V107Z" fill="#ADADAD"/>
</svg>
