<svg width="148" height="143" viewBox="0 0 148 143" fill="none" xmlns="http://www.w3.org/2000/svg">
<g filter="url(#filter0_d_42_193)">
<path d="M4 22.68C4 13.733 11.2323 6.48 20.1538 6.48H127.846C136.768 6.48 144 13.733 144 22.68V118.8C144 127.747 136.768 135 127.846 135H20.1539C11.2323 135 4 127.747 4 118.8V22.68Z" fill="url(#paint0_linear_42_193)"/>
<path d="M4 22.68C4 13.733 11.2323 6.48 20.1538 6.48H127.846C136.768 6.48 144 13.733 144 22.68V118.8C144 127.747 136.768 135 127.846 135H20.1539C11.2323 135 4 127.747 4 118.8V22.68Z" fill="black" fill-opacity="0.36"/>
<path d="M4 16.2C4 7.25299 11.2323 0 20.1538 0H127.846C136.768 0 144 7.25299 144 16.2V112.32C144 121.267 136.768 128.52 127.846 128.52H20.1539C11.2323 128.52 4 121.267 4 112.32V16.2Z" fill="url(#paint1_linear_42_193)"/>
<path d="M4 16.2C4 7.25299 11.2323 0 20.1538 0H127.846C136.768 0 144 7.25299 144 16.2V112.32C144 121.267 136.768 128.52 127.846 128.52H20.1539C11.2323 128.52 4 121.267 4 112.32V16.2Z" fill="#FFEC5B" fill-opacity="0.29"/>
<path d="M4 19.44C4 10.493 11.2323 3.24 20.1538 3.24H127.846C136.768 3.24 144 10.493 144 19.44V115.56C144 124.507 136.768 131.76 127.846 131.76H20.1539C11.2323 131.76 4 124.507 4 115.56V19.44Z" fill="url(#paint2_linear_42_193)"/>
<path d="M63.3294 117.084C62.5605 117.995 61.3139 117.995 60.545 117.084L48.4145 102.723C47.6456 101.813 47.6456 100.337 48.4145 99.4271L60.545 85.0661C61.3139 84.1559 62.5605 84.1559 63.3294 85.0661L75.46 99.4271C76.2288 100.337 76.2288 101.813 75.46 102.723L63.3294 117.084Z" fill="#D5D5D5"/>
<path fill-rule="evenodd" clip-rule="evenodd" d="M104.154 24.84C115.454 24.84 124.615 34.0271 124.615 45.36V82.08C124.615 93.4129 115.454 102.6 104.154 102.6H40.6154C29.3148 102.6 20.1538 93.4129 20.1538 82.08V45.36C20.1538 34.0271 29.3148 24.84 40.6154 24.84H104.154ZM40.6154 61.56C38.2363 61.56 36.3077 63.4941 36.3077 65.88C36.3077 68.2659 38.2363 70.2 40.6154 70.2H74C76.3791 70.2 78.3077 68.2659 78.3077 65.88C78.3077 63.4941 76.3791 61.56 74 61.56H40.6154ZM40.6154 43.2C38.2363 43.2 36.3077 45.1341 36.3077 47.52C36.3077 49.9059 38.2363 51.84 40.6154 51.84H96.6154C98.9945 51.84 100.923 49.9059 100.923 47.52C100.923 45.1341 98.9945 43.2 96.6154 43.2H40.6154Z" fill="white"/>
<path d="M64.4063 114.924C63.6374 115.835 62.3908 115.835 61.622 114.924L49.4914 100.563C48.7225 99.6532 48.7225 98.1774 49.4914 97.2671L61.622 82.9061C62.3908 81.9959 63.6374 81.9959 64.4063 82.9061L76.5369 97.2671C77.3057 98.1774 77.3057 99.6532 76.5369 100.563L64.4063 114.924Z" fill="white"/>
<path fill-rule="evenodd" clip-rule="evenodd" d="M105.231 22.68C116.531 22.68 125.692 31.8671 125.692 43.2V79.92C125.692 91.2529 116.531 100.44 105.231 100.44H41.6923C30.3917 100.44 21.2308 91.2529 21.2308 79.92V43.2C21.2308 31.8671 30.3917 22.68 41.6923 22.68H105.231ZM41.6923 59.4C39.3132 59.4 37.3846 61.3341 37.3846 63.72C37.3846 66.1059 39.3132 68.04 41.6923 68.04H75.0769C77.456 68.04 79.3846 66.1059 79.3846 63.72C79.3846 61.3341 77.456 59.4 75.0769 59.4H41.6923ZM41.6923 41.04C39.3132 41.04 37.3846 42.9741 37.3846 45.36C37.3846 47.7459 39.3132 49.68 41.6923 49.68H97.6923C100.071 49.68 102 47.7459 102 45.36C102 42.9741 100.071 41.04 97.6923 41.04H41.6923Z" fill="white"/>
</g>
<defs>
<filter id="filter0_d_42_193" x="0" y="0" width="148" height="143" filterUnits="userSpaceOnUse" color-interpolation-filters="sRGB">
<feFlood flood-opacity="0" result="BackgroundImageFix"/>
<feColorMatrix in="SourceAlpha" type="matrix" values="0 0 0 0 0 0 0 0 0 0 0 0 0 0 0 0 0 0 127 0" result="hardAlpha"/>
<feOffset dy="4"/>
<feGaussianBlur stdDeviation="2"/>
<feComposite in2="hardAlpha" operator="out"/>
<feColorMatrix type="matrix" values="0 0 0 0 0 0 0 0 0 0 0 0 0 0 0 0 0 0 0.25 0"/>
<feBlend mode="normal" in2="BackgroundImageFix" result="effect1_dropShadow_42_193"/>
<feBlend mode="normal" in="SourceGraphic" in2="effect1_dropShadow_42_193" result="shape"/>
</filter>
<linearGradient id="paint0_linear_42_193" x1="130" y1="21.6" x2="37.8576" y2="93.4938" gradientUnits="userSpaceOnUse">
<stop stop-color="#EB9925"/>
<stop offset="1" stop-color="#AC2929"/>
</linearGradient>
<linearGradient id="paint1_linear_42_193" x1="130" y1="15.12" x2="37.8576" y2="87.0138" gradientUnits="userSpaceOnUse">
<stop stop-color="#EB9925"/>
<stop offset="1" stop-color="#AC2929"/>
</linearGradient>
<linearGradient id="paint2_linear_42_193" x1="130" y1="18.36" x2="37.8576" y2="90.2538" gradientUnits="userSpaceOnUse">
<stop stop-color="#EB9925"/>
<stop offset="1" stop-color="#AC2929"/>
</linearGradient>
</defs>
</svg>
