<svg width="153" height="149" viewBox="0 0 153 149" fill="none" xmlns="http://www.w3.org/2000/svg">
<g filter="url(#filter0_d_42_193)">
<path d="M6.19995 22.68C6.19995 13.733 13.4323 6.48 22.3538 6.48H130.046C138.968 6.48 146.2 13.733 146.2 22.68V118.8C146.2 127.747 138.968 135 130.046 135H22.3538C13.4323 135 6.19995 127.747 6.19995 118.8V22.68Z" fill="url(#paint0_linear_42_193)"/>
<path d="M6.19995 22.68C6.19995 13.733 13.4323 6.48 22.3538 6.48H130.046C138.968 6.48 146.2 13.733 146.2 22.68V118.8C146.2 127.747 138.968 135 130.046 135H22.3538C13.4323 135 6.19995 127.747 6.19995 118.8V22.68Z" fill="black" fill-opacity="0.36"/>
<path d="M6.19995 16.2C6.19995 7.25299 13.4323 0 22.3538 0H130.046C138.968 0 146.2 7.25299 146.2 16.2V112.32C146.2 121.267 138.968 128.52 130.046 128.52H22.3538C13.4323 128.52 6.19995 121.267 6.19995 112.32V16.2Z" fill="url(#paint1_linear_42_193)"/>
<path d="M6.19995 16.2C6.19995 7.25299 13.4323 0 22.3538 0H130.046C138.968 0 146.2 7.25299 146.2 16.2V112.32C146.2 121.267 138.968 128.52 130.046 128.52H22.3538C13.4323 128.52 6.19995 121.267 6.19995 112.32V16.2Z" fill="#FFEC5B" fill-opacity="0.29"/>
<path d="M6.19995 19.44C6.19995 10.493 13.4323 3.24 22.3538 3.24H130.046C138.968 3.24 146.2 10.493 146.2 19.44V115.56C146.2 124.507 138.968 131.76 130.046 131.76H22.3538C13.4323 131.76 6.19995 124.507 6.19995 115.56V19.44Z" fill="url(#paint2_linear_42_193)"/>
<path d="M65.5293 117.084C64.7605 117.995 63.5139 117.995 62.745 117.084L50.6144 102.723C49.8455 101.813 49.8455 100.337 50.6144 99.4271L62.745 85.0661C63.5139 84.1559 64.7605 84.1559 65.5293 85.0661L77.6599 99.4271C78.4288 100.337 78.4288 101.813 77.6599 102.723L65.5293 117.084Z" fill="#D5D5D5"/>
<path fill-rule="evenodd" clip-rule="evenodd" d="M106.354 24.84C117.654 24.84 126.815 34.0271 126.815 45.36V82.08C126.815 93.4129 117.654 102.6 106.354 102.6H42.8153C31.5147 102.6 22.3538 93.4129 22.3538 82.08V45.36C22.3538 34.0271 31.5147 24.84 42.8153 24.84H106.354ZM42.8153 61.56C40.4363 61.56 38.5076 63.4941 38.5076 65.88C38.5076 68.2659 40.4363 70.2 42.8153 70.2H76.2C78.579 70.2 80.5076 68.2659 80.5076 65.88C80.5076 63.4941 78.579 61.56 76.2 61.56H42.8153ZM42.8153 43.2C40.4363 43.2 38.5076 45.1341 38.5076 47.52C38.5076 49.9059 40.4363 51.84 42.8153 51.84H98.8153C101.194 51.84 103.123 49.9059 103.123 47.52C103.123 45.1341 101.194 43.2 98.8153 43.2H42.8153Z" fill="white"/>
<path d="M66.6062 114.924C65.8374 115.835 64.5908 115.835 63.8219 114.924L51.6913 100.563C50.9225 99.6532 50.9225 98.1774 51.6913 97.2671L63.8219 82.9061C64.5908 81.9959 65.8374 81.9959 66.6062 82.9061L78.7368 97.2671C79.5057 98.1774 79.5057 99.6532 78.7368 100.563L66.6062 114.924Z" fill="white"/>
<path fill-rule="evenodd" clip-rule="evenodd" d="M107.431 22.68C118.731 22.68 127.892 31.8671 127.892 43.2V79.92C127.892 91.2529 118.731 100.44 107.431 100.44H43.8923C32.5917 100.44 23.4307 91.2529 23.4307 79.92V43.2C23.4307 31.8671 32.5917 22.68 43.8923 22.68H107.431ZM43.8923 59.4C41.5132 59.4 39.5846 61.3341 39.5846 63.72C39.5846 66.1059 41.5132 68.04 43.8923 68.04H77.2769C79.656 68.04 81.5846 66.1059 81.5846 63.72C81.5846 61.3341 79.656 59.4 77.2769 59.4H43.8923ZM43.8923 41.04C41.5132 41.04 39.5846 42.9741 39.5846 45.36C39.5846 47.7459 41.5132 49.68 43.8923 49.68H99.8923C102.271 49.68 104.2 47.7459 104.2 45.36C104.2 42.9741 102.271 41.04 99.8923 41.04H43.8923Z" fill="white"/>
</g>
<defs>
<filter id="filter0_d_42_193" x="-4.86374e-05" y="0" width="152.4" height="148.2" filterUnits="userSpaceOnUse" color-interpolation-filters="sRGB">
<feFlood flood-opacity="0" result="BackgroundImageFix"/>
<feColorMatrix in="SourceAlpha" type="matrix" values="0 0 0 0 0 0 0 0 0 0 0 0 0 0 0 0 0 0 127 0" result="hardAlpha"/>
<feOffset dy="7"/>
<feGaussianBlur stdDeviation="3.1"/>
<feComposite in2="hardAlpha" operator="out"/>
<feColorMatrix type="matrix" values="0 0 0 0 0 0 0 0 0 0 0 0 0 0 0 0 0 0 0.38 0"/>
<feBlend mode="normal" in2="BackgroundImageFix" result="effect1_dropShadow_42_193"/>
<feBlend mode="normal" in="SourceGraphic" in2="effect1_dropShadow_42_193" result="shape"/>
</filter>
<linearGradient id="paint0_linear_42_193" x1="132.2" y1="21.6" x2="40.0575" y2="93.4938" gradientUnits="userSpaceOnUse">
<stop stop-color="#EB9925"/>
<stop offset="1" stop-color="#AC2929"/>
</linearGradient>
<linearGradient id="paint1_linear_42_193" x1="132.2" y1="15.12" x2="40.0575" y2="87.0138" gradientUnits="userSpaceOnUse">
<stop stop-color="#EB9925"/>
<stop offset="1" stop-color="#AC2929"/>
</linearGradient>
<linearGradient id="paint2_linear_42_193" x1="132.2" y1="18.36" x2="40.0575" y2="90.2538" gradientUnits="userSpaceOnUse">
<stop stop-color="#EB9925"/>
<stop offset="1" stop-color="#AC2929"/>
</linearGradient>
</defs>
</svg>
