<svg width="140" height="135" viewBox="0 0 140 135" fill="none" xmlns="http://www.w3.org/2000/svg">
<path d="M0 22.68C0 13.733 7.23232 6.48 16.1538 6.48H123.846C132.768 6.48 140 13.733 140 22.68V118.8C140 127.747 132.768 135 123.846 135H16.1539C7.23233 135 0 127.747 0 118.8V22.68Z" fill="url(#paint0_linear_42_193)"/>
<path d="M0 22.68C0 13.733 7.23232 6.48 16.1538 6.48H123.846C132.768 6.48 140 13.733 140 22.68V118.8C140 127.747 132.768 135 123.846 135H16.1539C7.23233 135 0 127.747 0 118.8V22.68Z" fill="black" fill-opacity="0.36"/>
<path d="M0 16.2C0 7.25299 7.23232 0 16.1538 0H123.846C132.768 0 140 7.25299 140 16.2V112.32C140 121.267 132.768 128.52 123.846 128.52H16.1539C7.23233 128.52 0 121.267 0 112.32V16.2Z" fill="url(#paint1_linear_42_193)"/>
<path d="M0 16.2C0 7.25299 7.23232 0 16.1538 0H123.846C132.768 0 140 7.25299 140 16.2V112.32C140 121.267 132.768 128.52 123.846 128.52H16.1539C7.23233 128.52 0 121.267 0 112.32V16.2Z" fill="#FFEC5B" fill-opacity="0.29"/>
<path d="M0 19.44C0 10.493 7.23232 3.24 16.1538 3.24H123.846C132.768 3.24 140 10.493 140 19.44V115.56C140 124.507 132.768 131.76 123.846 131.76H16.1539C7.23233 131.76 0 124.507 0 115.56V19.44Z" fill="url(#paint2_linear_42_193)"/>
<path d="M59.3294 117.084C58.5605 117.995 57.3139 117.995 56.545 117.084L44.4145 102.723C43.6456 101.813 43.6456 100.337 44.4145 99.4271L56.545 85.0661C57.3139 84.1559 58.5605 84.1559 59.3294 85.0661L71.46 99.4271C72.2288 100.337 72.2288 101.813 71.46 102.723L59.3294 117.084Z" fill="#D5D5D5"/>
<path fill-rule="evenodd" clip-rule="evenodd" d="M100.154 24.84C111.454 24.84 120.615 34.0271 120.615 45.36V82.08C120.615 93.4129 111.454 102.6 100.154 102.6H36.6154C25.3148 102.6 16.1538 93.4129 16.1538 82.08V45.36C16.1538 34.0271 25.3148 24.84 36.6154 24.84H100.154ZM36.6154 61.56C34.2363 61.56 32.3077 63.4941 32.3077 65.88C32.3077 68.2659 34.2363 70.2 36.6154 70.2H70C72.3791 70.2 74.3077 68.2659 74.3077 65.88C74.3077 63.4941 72.3791 61.56 70 61.56H36.6154ZM36.6154 43.2C34.2363 43.2 32.3077 45.1341 32.3077 47.52C32.3077 49.9059 34.2363 51.84 36.6154 51.84H92.6154C94.9945 51.84 96.9231 49.9059 96.9231 47.52C96.9231 45.1341 94.9945 43.2 92.6154 43.2H36.6154Z" fill="white"/>
<path d="M60.4063 114.924C59.6374 115.835 58.3908 115.835 57.622 114.924L45.4914 100.563C44.7225 99.6532 44.7225 98.1774 45.4914 97.2671L57.622 82.9061C58.3908 81.9959 59.6374 81.9959 60.4063 82.9061L72.5369 97.2671C73.3057 98.1774 73.3057 99.6532 72.5369 100.563L60.4063 114.924Z" fill="white"/>
<path fill-rule="evenodd" clip-rule="evenodd" d="M101.231 22.68C112.531 22.68 121.692 31.8671 121.692 43.2V79.92C121.692 91.2529 112.531 100.44 101.231 100.44H37.6923C26.3917 100.44 17.2308 91.2529 17.2308 79.92V43.2C17.2308 31.8671 26.3917 22.68 37.6923 22.68H101.231ZM37.6923 59.4C35.3132 59.4 33.3846 61.3341 33.3846 63.72C33.3846 66.1059 35.3132 68.04 37.6923 68.04H71.0769C73.456 68.04 75.3846 66.1059 75.3846 63.72C75.3846 61.3341 73.456 59.4 71.0769 59.4H37.6923ZM37.6923 41.04C35.3132 41.04 33.3846 42.9741 33.3846 45.36C33.3846 47.7459 35.3132 49.68 37.6923 49.68H93.6923C96.0714 49.68 98 47.7459 98 45.36C98 42.9741 96.0714 41.04 93.6923 41.04H37.6923Z" fill="white"/>
<defs>
<linearGradient id="paint0_linear_42_193" x1="126" y1="21.6" x2="33.8576" y2="93.4938" gradientUnits="userSpaceOnUse">
<stop stop-color="#EB9925"/>
<stop offset="1" stop-color="#AC2929"/>
</linearGradient>
<linearGradient id="paint1_linear_42_193" x1="126" y1="15.12" x2="33.8576" y2="87.0138" gradientUnits="userSpaceOnUse">
<stop stop-color="#EB9925"/>
<stop offset="1" stop-color="#AC2929"/>
</linearGradient>
<linearGradient id="paint2_linear_42_193" x1="126" y1="18.36" x2="33.8576" y2="90.2538" gradientUnits="userSpaceOnUse">
<stop stop-color="#EB9925"/>
<stop offset="1" stop-color="#AC2929"/>
</linearGradient>
</defs>
</svg>
