<svg width="176" height="133" viewBox="0 0 176 133" fill="none" xmlns="http://www.w3.org/2000/svg">
<g filter="url(#filter0_d_43_293)">
<path d="M6.04406 60.1379C6.29845 52.0655 12.8987 45.6437 20.9752 45.6106L150.234 45.081C160.164 45.0403 167.392 54.4843 164.759 64.0582L151.031 113.977C149.241 120.488 143.321 125 136.568 125H19.4801C11.0107 125 4.22083 117.993 4.4876 109.528L6.04406 60.1379Z" fill="#4A4A4A"/>
<path d="M55 0C59.6501 0 63.8063 2.11584 66.5576 5.4375L71.001 9.18066C73.3514 11.1598 76.7293 12.5025 80.4707 13H139C147.284 13 154 19.7157 154 28V46C154 54.2843 147.284 61 139 61H19C10.7157 61 4 54.2843 4 46V15C4 6.71573 10.7157 0 19 0H55Z" fill="white"/>
<path d="M55 0C59.6501 0 63.8063 2.11584 66.5576 5.4375L71.001 9.18066C73.3514 11.1598 76.7293 12.5025 80.4707 13H139C147.284 13 154 19.7157 154 28V46C154 54.2843 147.284 61 139 61H19C10.7157 61 4 54.2843 4 46V15C4 6.71573 10.7157 0 19 0H55Z" fill="url(#paint0_linear_43_293)" fill-opacity="0.91"/>
<path d="M55 3C59.6501 3 63.8063 5.11584 66.5576 8.4375L71.001 12.1807C72.6168 13.5413 74.7185 14.6008 77.0898 15.292C77.5212 15.4177 77.9613 15.5319 78.4092 15.6328C79.0806 15.7841 79.7693 15.9067 80.4707 16H139C147.284 16 154 22.7157 154 31V49C154 50.7498 153.698 52.4289 153.147 53.9902C152.284 75.8065 150.944 105.37 150 106C148.5 107 147.284 121 139 121H19C10.7158 121 4 114.284 4 106V18C4 9.71573 10.7157 3 19 3H55Z" fill="#D9D9D9"/>
<path d="M55 3C59.6501 3 63.8063 5.11584 66.5576 8.4375L71.001 12.1807C72.6168 13.5413 74.7185 14.6008 77.0898 15.292C77.5212 15.4177 77.9613 15.5319 78.4092 15.6328C79.0806 15.7841 79.7693 15.9067 80.4707 16H139C147.284 16 154 22.7157 154 31V49C154 50.7498 153.698 52.4289 153.147 53.9902C152.284 75.8065 150.944 105.37 150 106C148.5 107 147.284 121 139 121H19C10.7158 121 4 114.284 4 106V18C4 9.71573 10.7157 3 19 3H55Z" fill="url(#paint1_linear_43_293)"/>
<path d="M16.5178 37.4164C17.3277 29.788 23.7627 24 31.434 24H138.452C147.918 24 155.018 32.6602 153.161 41.9422L139.959 107.942C138.556 114.953 132.4 120 125.25 120H24.4268C15.5159 120 8.56989 112.277 9.51066 103.416L16.5178 37.4164Z" fill="#FAFAFA"/>
<path d="M22.1967 43.4722C23.4284 36.2678 29.6733 31 36.9822 31H146.453C156 31 163.118 39.8009 161.121 49.137L148.101 110.017C146.61 116.99 140.416 121.95 133.286 121.88L26.6053 120.833C17.3709 120.742 10.4107 112.409 11.967 103.306L22.1967 43.4722Z" fill="#D9D9D9"/>
<path d="M155.873 31C164.145 31 172.789 37.7053 170.85 45.3684C168.912 53.0316 156.622 99.9684 154.317 107.632C152.011 115.295 147.611 122 139.339 122H19.5195C11.2477 122 2.04584 115.295 4.54207 107.632C4.54207 107.632 18.638 65.9632 21.0758 57.8211C23.5135 49.6789 27.7814 43.4526 36.0532 43.4526H94.4946C98.2303 42.9761 101.603 41.6899 103.95 39.7941L108.386 36.2086C111.133 33.0265 115.284 31 119.927 31H155.873Z" fill="#8D8D8D"/>
<path d="M155.873 34C164.145 34 172.789 40.4842 170.85 47.8947C168.912 55.3053 156.622 100.695 154.317 108.105C152.011 115.516 147.611 122 139.339 122H19.5195C11.2477 122 2.04584 115.516 4.54207 108.105C4.54207 108.105 18.638 67.8105 21.0758 59.9368C23.5135 52.0632 27.7814 46.0421 36.0532 46.0421H94.4946C98.2303 45.5813 101.603 44.3375 103.95 42.5042L108.386 39.0368C111.133 35.9597 115.284 34 119.927 34H155.873Z" fill="#777777"/>
</g>
<defs>
<filter id="filter0_d_43_293" x="0" y="0" width="175.126" height="133" filterUnits="userSpaceOnUse" color-interpolation-filters="sRGB">
<feFlood flood-opacity="0" result="BackgroundImageFix"/>
<feColorMatrix in="SourceAlpha" type="matrix" values="0 0 0 0 0 0 0 0 0 0 0 0 0 0 0 0 0 0 127 0" result="hardAlpha"/>
<feOffset dy="4"/>
<feGaussianBlur stdDeviation="2"/>
<feComposite in2="hardAlpha" operator="out"/>
<feColorMatrix type="matrix" values="0 0 0 0 0 0 0 0 0 0 0 0 0 0 0 0 0 0 0.25 0"/>
<feBlend mode="normal" in2="BackgroundImageFix" result="effect1_dropShadow_43_293"/>
<feBlend mode="normal" in="SourceGraphic" in2="effect1_dropShadow_43_293" result="shape"/>
</filter>
<linearGradient id="paint0_linear_43_293" x1="-3" y1="75.5" x2="182.479" y2="24.3778" gradientUnits="userSpaceOnUse">
<stop stop-color="#30032D"/>
<stop offset="1" stop-color="#EB5625"/>
</linearGradient>
<linearGradient id="paint1_linear_43_293" x1="-3.00001" y1="78.4999" x2="182.479" y2="27.3776" gradientUnits="userSpaceOnUse">
<stop stop-color="#30032D"/>
<stop offset="1" stop-color="#EB5625"/>
</linearGradient>
</defs>
</svg>
