<svg width="150" height="125" viewBox="0 0 150 125" fill="none" xmlns="http://www.w3.org/2000/svg">
<rect y="45" width="150" height="80" rx="15" fill="#4A4A4A"/>
<path d="M51 0C55.6501 0 59.8063 2.11584 62.5576 5.4375L67.001 9.18066C69.3514 11.1598 72.7293 12.5025 76.4707 13H135C143.284 13 150 19.7157 150 28V46C150 54.2843 143.284 61 135 61H15C6.71573 61 0 54.2843 0 46V15C5.1544e-07 6.71573 6.71573 0 15 0H51Z" fill="white"/>
<path d="M51 0C55.6501 0 59.8063 2.11584 62.5576 5.4375L67.001 9.18066C69.3514 11.1598 72.7293 12.5025 76.4707 13H135C143.284 13 150 19.7157 150 28V46C150 54.2843 143.284 61 135 61H15C6.71573 61 0 54.2843 0 46V15C5.1544e-07 6.71573 6.71573 0 15 0H51Z" fill="url(#paint0_linear_43_225)" fill-opacity="0.91"/>
<path d="M51 3C55.6501 3 59.8063 5.11584 62.5576 8.4375L67.001 12.1807C69.3514 14.1598 72.7293 15.5025 76.4707 16H135C143.284 16 150 22.7157 150 31V49C150 57.2843 143.284 64 135 64H15C6.71573 64 0 57.2843 0 49V18C5.1544e-07 9.71573 6.71573 3 15 3H51Z" fill="#D9D9D9"/>
<path d="M51 3C55.6501 3 59.8063 5.11584 62.5576 8.4375L67.001 12.1807C69.3514 14.1598 72.7293 15.5025 76.4707 16H135C143.284 16 150 22.7157 150 31V49C150 57.2843 143.284 64 135 64H15C6.71573 64 0 57.2843 0 49V18C5.1544e-07 9.71573 6.71573 3 15 3H51Z" fill="url(#paint1_linear_43_225)"/>
<path d="M135 24C143.284 24 150 30.7157 150 39V56C150 64.2843 143.284 71 135 71H15C6.71573 71 0 64.2843 0 56V52C0 43.7157 6.71573 37 15 37H73.5293C77.2707 36.5025 80.6486 35.1598 82.999 33.1807L87.4414 29.4375C90.1928 26.1156 94.3496 24 99 24H135Z" fill="#8D8D8D"/>
<path d="M135 27C143.284 27 150 33.7157 150 42V107C150 115.284 143.284 122 135 122H15C6.71573 122 0 115.284 0 107V55C0 46.7157 6.71573 40 15 40H73.5293C77.2707 39.5025 80.6486 38.1598 82.999 36.1807L87.4414 32.4375C90.1928 29.1156 94.3496 27 99 27H135Z" fill="#777777"/>
<defs>
<linearGradient id="paint0_linear_43_225" x1="-7" y1="75.5" x2="178.479" y2="24.3778" gradientUnits="userSpaceOnUse">
<stop stop-color="#30032D"/>
<stop offset="1" stop-color="#EB5625"/>
</linearGradient>
<linearGradient id="paint1_linear_43_225" x1="-7" y1="78.5" x2="178.479" y2="27.3778" gradientUnits="userSpaceOnUse">
<stop stop-color="#30032D"/>
<stop offset="1" stop-color="#EB5625"/>
</linearGradient>
</defs>
</svg>
