<svg width="158" height="133" viewBox="0 0 158 133" fill="none" xmlns="http://www.w3.org/2000/svg">
<g filter="url(#filter0_d_43_225)">
<rect x="4" y="45" width="150" height="80" rx="15" fill="#4A4A4A"/>
<path d="M55 0C59.6501 0 63.8063 2.11584 66.5576 5.4375L71.001 9.18066C73.3514 11.1598 76.7293 12.5025 80.4707 13H139C147.284 13 154 19.7157 154 28V46C154 54.2843 147.284 61 139 61H19C10.7157 61 4 54.2843 4 46V15C4 6.71573 10.7157 0 19 0H55Z" fill="white"/>
<path d="M55 0C59.6501 0 63.8063 2.11584 66.5576 5.4375L71.001 9.18066C73.3514 11.1598 76.7293 12.5025 80.4707 13H139C147.284 13 154 19.7157 154 28V46C154 54.2843 147.284 61 139 61H19C10.7157 61 4 54.2843 4 46V15C4 6.71573 10.7157 0 19 0H55Z" fill="url(#paint0_linear_43_225)" fill-opacity="0.91"/>
<path d="M55 3C59.6501 3 63.8063 5.11584 66.5576 8.4375L71.001 12.1807C73.3514 14.1598 76.7293 15.5025 80.4707 16H139C147.284 16 154 22.7157 154 31V49C154 57.2843 147.284 64 139 64H19C10.7157 64 4 57.2843 4 49V18C4 9.71573 10.7157 3 19 3H55Z" fill="#D9D9D9"/>
<path d="M55 3C59.6501 3 63.8063 5.11584 66.5576 8.4375L71.001 12.1807C73.3514 14.1598 76.7293 15.5025 80.4707 16H139C147.284 16 154 22.7157 154 31V49C154 57.2843 147.284 64 139 64H19C10.7157 64 4 57.2843 4 49V18C4 9.71573 10.7157 3 19 3H55Z" fill="url(#paint1_linear_43_225)"/>
<path d="M139 24C147.284 24 154 30.7157 154 39V56C154 64.2843 147.284 71 139 71H19C10.7157 71 4 64.2843 4 56V52C4 43.7157 10.7157 37 19 37H77.5293C81.2707 36.5025 84.6486 35.1598 86.999 33.1807L91.4414 29.4375C94.1928 26.1156 98.3496 24 103 24H139Z" fill="#8D8D8D"/>
<path d="M139 27C147.284 27 154 33.7157 154 42V107C154 115.284 147.284 122 139 122H19C10.7157 122 4 115.284 4 107V55C4 46.7157 10.7157 40 19 40H77.5293C81.2707 39.5025 84.6486 38.1598 86.999 36.1807L91.4414 32.4375C94.1928 29.1156 98.3496 27 103 27H139Z" fill="#777777"/>
</g>
<defs>
<filter id="filter0_d_43_225" x="0" y="0" width="158" height="133" filterUnits="userSpaceOnUse" color-interpolation-filters="sRGB">
<feFlood flood-opacity="0" result="BackgroundImageFix"/>
<feColorMatrix in="SourceAlpha" type="matrix" values="0 0 0 0 0 0 0 0 0 0 0 0 0 0 0 0 0 0 127 0" result="hardAlpha"/>
<feOffset dy="4"/>
<feGaussianBlur stdDeviation="2"/>
<feComposite in2="hardAlpha" operator="out"/>
<feColorMatrix type="matrix" values="0 0 0 0 0 0 0 0 0 0 0 0 0 0 0 0 0 0 0.25 0"/>
<feBlend mode="normal" in2="BackgroundImageFix" result="effect1_dropShadow_43_225"/>
<feBlend mode="normal" in="SourceGraphic" in2="effect1_dropShadow_43_225" result="shape"/>
</filter>
<linearGradient id="paint0_linear_43_225" x1="-3" y1="75.5" x2="182.479" y2="24.3778" gradientUnits="userSpaceOnUse">
<stop stop-color="#30032D"/>
<stop offset="1" stop-color="#EB5625"/>
</linearGradient>
<linearGradient id="paint1_linear_43_225" x1="-3" y1="78.5" x2="182.479" y2="27.3778" gradientUnits="userSpaceOnUse">
<stop stop-color="#30032D"/>
<stop offset="1" stop-color="#EB5625"/>
</linearGradient>
</defs>
</svg>
