<svg width="168" height="125" viewBox="0 0 168 125" fill="none" xmlns="http://www.w3.org/2000/svg">
<path d="M2.04406 60.1379C2.29845 52.0655 8.89873 45.6437 16.9752 45.6106L146.234 45.081C156.164 45.0403 163.392 54.4843 160.759 64.0582L147.031 113.977C145.241 120.488 139.321 125 132.568 125H15.4801C7.01073 125 0.220826 117.993 0.487598 109.528L2.04406 60.1379Z" fill="#4A4A4A"/>
<path d="M51 0C55.6501 0 59.8063 2.11584 62.5576 5.4375L67.001 9.18066C69.3514 11.1598 72.7293 12.5025 76.4707 13H135C143.284 13 150 19.7157 150 28V46C150 54.2843 143.284 61 135 61H15C6.71573 61 0 54.2843 0 46V15C5.1544e-07 6.71573 6.71573 0 15 0H51Z" fill="white"/>
<path d="M51 0C55.6501 0 59.8063 2.11584 62.5576 5.4375L67.001 9.18066C69.3514 11.1598 72.7293 12.5025 76.4707 13H135C143.284 13 150 19.7157 150 28V46C150 54.2843 143.284 61 135 61H15C6.71573 61 0 54.2843 0 46V15C5.1544e-07 6.71573 6.71573 0 15 0H51Z" fill="url(#paint0_linear_43_293)" fill-opacity="0.91"/>
<path d="M51 3C55.6501 3 59.8063 5.11584 62.5576 8.4375L67.001 12.1807C68.6168 13.5413 70.7185 14.6008 73.0898 15.292C73.5212 15.4177 73.9613 15.5319 74.4092 15.6328C75.0806 15.7841 75.7693 15.9067 76.4707 16H135C143.284 16 150 22.7157 150 31V49C150 50.7498 149.698 52.4289 149.147 53.9902C148.284 75.8065 146.944 105.37 146 106C144.5 107 143.284 121 135 121H15C6.71577 121 0 114.284 0 106V18C5.1544e-07 9.71573 6.71573 3 15 3H51Z" fill="#D9D9D9"/>
<path d="M51 3C55.6501 3 59.8063 5.11584 62.5576 8.4375L67.001 12.1807C68.6168 13.5413 70.7185 14.6008 73.0898 15.292C73.5212 15.4177 73.9613 15.5319 74.4092 15.6328C75.0806 15.7841 75.7693 15.9067 76.4707 16H135C143.284 16 150 22.7157 150 31V49C150 50.7498 149.698 52.4289 149.147 53.9902C148.284 75.8065 146.944 105.37 146 106C144.5 107 143.284 121 135 121H15C6.71577 121 0 114.284 0 106V18C5.1544e-07 9.71573 6.71573 3 15 3H51Z" fill="url(#paint1_linear_43_293)"/>
<path d="M12.5178 37.4164C13.3277 29.788 19.7627 24 27.434 24H134.452C143.918 24 151.018 32.6602 149.161 41.9422L135.959 107.942C134.556 114.953 128.4 120 121.25 120H20.4268C11.5159 120 4.56989 112.277 5.51066 103.416L12.5178 37.4164Z" fill="#FAFAFA"/>
<path d="M18.1967 43.4722C19.4284 36.2678 25.6733 31 32.9822 31H142.453C152 31 159.118 39.8009 157.121 49.137L144.101 110.017C142.61 116.99 136.416 121.95 129.286 121.88L22.6053 120.833C13.3709 120.742 6.41075 112.409 7.96704 103.306L18.1967 43.4722Z" fill="#D9D9D9"/>
<path d="M151.873 31C160.145 31 168.789 37.7053 166.85 45.3684C164.912 53.0316 152.622 99.9684 150.317 107.632C148.011 115.295 143.611 122 135.339 122H15.5195C7.24771 122 -1.95416 115.295 0.542072 107.632C0.542072 107.632 14.638 65.9632 17.0758 57.8211C19.5135 49.6789 23.7814 43.4526 32.0532 43.4526H90.4946C94.2303 42.9761 97.6032 41.6899 99.9501 39.7941L104.386 36.2086C107.133 33.0265 111.284 31 115.927 31H151.873Z" fill="#8D8D8D"/>
<path d="M151.873 34C160.145 34 168.789 40.4842 166.85 47.8947C164.912 55.3053 152.622 100.695 150.317 108.105C148.011 115.516 143.611 122 135.339 122H15.5195C7.24771 122 -1.95416 115.516 0.542072 108.105C0.542072 108.105 14.638 67.8105 17.0758 59.9368C19.5135 52.0632 23.7814 46.0421 32.0532 46.0421H90.4946C94.2303 45.5813 97.6032 44.3375 99.9501 42.5042L104.386 39.0368C107.133 35.9597 111.284 34 115.927 34H151.873Z" fill="#777777"/>
<defs>
<linearGradient id="paint0_linear_43_293" x1="-7" y1="75.5" x2="178.479" y2="24.3778" gradientUnits="userSpaceOnUse">
<stop stop-color="#30032D"/>
<stop offset="1" stop-color="#EB5625"/>
</linearGradient>
<linearGradient id="paint1_linear_43_293" x1="-7.00001" y1="78.4999" x2="178.479" y2="27.3776" gradientUnits="userSpaceOnUse">
<stop stop-color="#30032D"/>
<stop offset="1" stop-color="#EB5625"/>
</linearGradient>
</defs>
</svg>
