<svg width="150" height="125" viewBox="0 0 150 125" fill="none" xmlns="http://www.w3.org/2000/svg">
<path d="M0 15C0 6.71573 6.71573 0 15 0H135C143.284 0 150 6.71573 150 15V104C150 112.284 143.284 119 135 119H15C6.71573 119 0 112.284 0 104V15Z" fill="#8D8D8D"/>
<path d="M0 21C0 12.7157 6.71573 6 15 6H135C143.284 6 150 12.7157 150 21V110C150 118.284 143.284 125 135 125H15C6.71573 125 0 118.284 0 110V21Z" fill="#4A4A4A"/>
<path d="M0 18C0 9.71573 6.71573 3 15 3H135C143.284 3 150 9.71573 150 18V107C150 115.284 143.284 122 135 122H15C6.71573 122 0 115.284 0 107V18Z" fill="#4E4C4C"/>
<path d="M71.8042 58.0004C73.7372 58.0004 75.3042 59.5674 75.3042 61.5004C75.304 63.4332 73.7371 65.0004 71.8042 65.0004H40.8042C38.8714 65.0004 37.3045 63.4332 37.3042 61.5004C37.3042 59.5674 38.8712 58.0004 40.8042 58.0004H71.8042ZM19.5396 19.725C20.3409 17.9662 22.4164 17.1897 24.1753 17.9906L51.5542 30.4633C53.2732 31.2467 54.0521 33.2466 53.3384 34.9789C53.1551 36.0925 52.438 37.0977 51.3335 37.6L23.9497 50.0541C22.1903 50.8544 20.1153 50.0772 19.315 48.3178C18.5147 46.5583 19.2919 44.4834 21.0513 43.683L42.3862 33.9789L21.2739 24.3617C19.5149 23.5604 18.7382 21.4841 19.5396 19.725Z" fill="white"/>
</svg>
