<svg width="163" height="139" viewBox="0 0 163 139" fill="none" xmlns="http://www.w3.org/2000/svg">
<g filter="url(#filter0_d_42_121)">
<path d="M6.19995 15C6.19995 6.71573 12.9157 0 21.2 0H141.2C149.484 0 156.2 6.71573 156.2 15V104C156.2 112.284 149.484 119 141.2 119H21.2C12.9157 119 6.19995 112.284 6.19995 104V15Z" fill="#8D8D8D"/>
<path d="M6.19995 21C6.19995 12.7157 12.9157 6 21.2 6H141.2C149.484 6 156.2 12.7157 156.2 21V110C156.2 118.284 149.484 125 141.2 125H21.2C12.9157 125 6.19995 118.284 6.19995 110V21Z" fill="#4A4A4A"/>
<path d="M6.19995 18C6.19995 9.71573 12.9157 3 21.2 3H141.2C149.484 3 156.2 9.71573 156.2 18V107C156.2 115.284 149.484 122 141.2 122H21.2C12.9157 122 6.19995 115.284 6.19995 107V18Z" fill="#4E4C4C"/>
<path d="M78.0042 58.0004C79.9372 58.0004 81.5042 59.5674 81.5042 61.5004C81.5039 63.4332 79.937 65.0004 78.0042 65.0004H47.0042C45.0713 65.0004 43.5044 63.4332 43.5042 61.5004C43.5042 59.5674 45.0712 58.0004 47.0042 58.0004H78.0042ZM25.7395 19.725C26.5408 17.9662 28.6163 17.1897 30.3753 17.9906L57.7542 30.4633C59.4732 31.2467 60.2521 33.2466 59.5383 34.9789C59.355 36.0925 58.6379 37.0977 57.5335 37.6L30.1497 50.0541C28.3902 50.8544 26.3153 50.0772 25.5149 48.3178C24.7147 46.5583 25.4919 44.4834 27.2512 43.683L48.5862 33.9789L27.4739 24.3617C25.7148 23.5604 24.9382 21.4841 25.7395 19.725Z" fill="white"/>
</g>
<defs>
<filter id="filter0_d_42_121" x="-4.86374e-05" y="0" width="162.4" height="138.2" filterUnits="userSpaceOnUse" color-interpolation-filters="sRGB">
<feFlood flood-opacity="0" result="BackgroundImageFix"/>
<feColorMatrix in="SourceAlpha" type="matrix" values="0 0 0 0 0 0 0 0 0 0 0 0 0 0 0 0 0 0 127 0" result="hardAlpha"/>
<feOffset dy="7"/>
<feGaussianBlur stdDeviation="3.1"/>
<feComposite in2="hardAlpha" operator="out"/>
<feColorMatrix type="matrix" values="0 0 0 0 0 0 0 0 0 0 0 0 0 0 0 0 0 0 0.38 0"/>
<feBlend mode="normal" in2="BackgroundImageFix" result="effect1_dropShadow_42_121"/>
<feBlend mode="normal" in="SourceGraphic" in2="effect1_dropShadow_42_121" result="shape"/>
</filter>
</defs>
</svg>
