<svg width="158" height="133" viewBox="0 0 158 133" fill="none" xmlns="http://www.w3.org/2000/svg">
<g filter="url(#filter0_d_42_121)">
<path d="M4 15C4 6.71573 10.7157 0 19 0H139C147.284 0 154 6.71573 154 15V104C154 112.284 147.284 119 139 119H19C10.7157 119 4 112.284 4 104V15Z" fill="#8D8D8D"/>
<path d="M4 21C4 12.7157 10.7157 6 19 6H139C147.284 6 154 12.7157 154 21V110C154 118.284 147.284 125 139 125H19C10.7157 125 4 118.284 4 110V21Z" fill="#4A4A4A"/>
<path d="M4 18C4 9.71573 10.7157 3 19 3H139C147.284 3 154 9.71573 154 18V107C154 115.284 147.284 122 139 122H19C10.7157 122 4 115.284 4 107V18Z" fill="#4E4C4C"/>
<path d="M75.8042 58.0004C77.7372 58.0004 79.3042 59.5674 79.3042 61.5004C79.304 63.4332 77.7371 65.0004 75.8042 65.0004H44.8042C42.8714 65.0004 41.3045 63.4332 41.3042 61.5004C41.3042 59.5674 42.8712 58.0004 44.8042 58.0004H75.8042ZM23.5396 19.725C24.3409 17.9662 26.4164 17.1897 28.1753 17.9906L55.5542 30.4633C57.2732 31.2467 58.0521 33.2466 57.3384 34.9789C57.1551 36.0925 56.438 37.0977 55.3335 37.6L27.9497 50.0541C26.1903 50.8544 24.1153 50.0772 23.315 48.3178C22.5147 46.5583 23.2919 44.4834 25.0513 43.683L46.3862 33.9789L25.2739 24.3617C23.5149 23.5604 22.7382 21.4841 23.5396 19.725Z" fill="white"/>
</g>
<defs>
<filter id="filter0_d_42_121" x="0" y="0" width="158" height="133" filterUnits="userSpaceOnUse" color-interpolation-filters="sRGB">
<feFlood flood-opacity="0" result="BackgroundImageFix"/>
<feColorMatrix in="SourceAlpha" type="matrix" values="0 0 0 0 0 0 0 0 0 0 0 0 0 0 0 0 0 0 127 0" result="hardAlpha"/>
<feOffset dy="4"/>
<feGaussianBlur stdDeviation="2"/>
<feComposite in2="hardAlpha" operator="out"/>
<feColorMatrix type="matrix" values="0 0 0 0 0 0 0 0 0 0 0 0 0 0 0 0 0 0 0.25 0"/>
<feBlend mode="normal" in2="BackgroundImageFix" result="effect1_dropShadow_42_121"/>
<feBlend mode="normal" in="SourceGraphic" in2="effect1_dropShadow_42_121" result="shape"/>
</filter>
</defs>
</svg>
